<?xml version="1.0" encoding="UTF-8"?>
<svg id="Layer_2" data-name="Layer 2" xmlns="http://www.w3.org/2000/svg" viewBox="0 0 993.75 218.94">
  <defs>
    <style>
      .cls-1 {
        fill: #a9f;
      }

      .cls-2 {
        fill: #6529b2;
      }
    </style>
  </defs>
  <g id="Layer_1-2" data-name="Layer 1">
    <g>
      <g>
        <path class="cls-2" d="M311.15,64.79l-7.92,12.03c-7.77-5.9-15.09-9.27-25.63-9.27-19.73,0-39.01,16.37-39.01,39.9.3,25.26,15.84,43.42,39.83,43.42,13.53,0,20.03-4.56,28.32-11.21l8.82,11.36c-9.94,8.37-20.03,14.27-37.36,14.27-30.34,0-53.95-23.91-53.95-57.24,0-30.04,22.94-54.78,53.88-54.78,14.94,0,26.45,6.73,33.03,11.51Z"/>
        <path class="cls-2" d="M399.67,123.3c0,23.09-18.91,41.92-42,41.92s-41.92-18.83-41.92-41.92,18.83-41.92,41.92-41.92,42,18.83,42,41.92ZM330.1,123.3c0,15.32,12.25,27.57,27.57,27.57s27.65-12.25,27.65-27.57-12.25-27.57-27.65-27.57-27.57,12.25-27.57,27.57Z"/>
        <path class="cls-2" d="M424.42,94.83c6.85-8.07,20.19-13.6,32.9-13.6,23.48,0,46.33,10.69,46.33,37.66v46.41h-17.07v-45.36c0-16.66-13.16-24.29-29.35-24.29-15.03.22-32.82,10.16-32.82,23.69v45.96h-17.07v-83.1h17.07v12.63Z"/>
        <path class="cls-2" d="M529.85,94.83c6.85-8.07,20.19-13.6,32.9-13.6,23.48,0,46.33,10.69,46.33,37.66v46.41h-17.07v-45.36c0-16.66-13.16-24.29-29.35-24.29-15.03.22-32.82,10.16-32.82,23.69v45.96h-17.07v-83.1h17.07v12.63Z"/>
        <path class="cls-2" d="M701.53,127.33l-68.45.3c.67,12.63,14.35,23.24,29.82,23.24,8.74,0,22.49-3.66,30.12-11.28l8.14,11.96c-10.24,7.47-20.55,13.45-38.26,13.68-26.08,0-44.69-18.91-44.69-42s17.71-42,42.22-42c29.52,1.94,41.1,26,41.1,46.11ZM634.43,115.08h49.99c-2.47-8.59-11.88-19.5-24.06-19.5-14.12,0-24.51,10.24-25.93,19.5Z"/>
        <path class="cls-2" d="M780.79,96.17l-9.27,11.13c-5.46-6.95-14.12-12.63-25.63-11.66-15.39,1.42-26.53,14.72-25.18,30.04,1.34,15.24,14.72,26.53,30.11,25.11,7.62-.75,14.72-3.81,22.12-14.05l10.99,9.34c-7.02,10.39-17.41,17.56-31.83,18.98-23.02,2.32-43.64-15.09-45.73-38.11-2.02-23.09,15.17-43.86,38.33-45.58,10.98-.82,24.51,1.94,36.09,14.8Z"/>
        <path class="cls-2" d="M806.09,53.2v28.99h17.93v11.58h-17.93v44.39c0,11.81,6.28,11.96,18.31,12.93l-.6,14.12c-15.47,0-31.98-.67-31.98-24.29v-47.15h-7.7v-11.58h7.7v-28.99h14.27Z"/>
        <path class="cls-2" d="M905.67,127.33l-68.45.3c.67,12.63,14.35,23.24,29.82,23.24,8.74,0,22.49-3.66,30.12-11.28l8.14,11.96c-10.24,7.47-20.55,13.45-38.26,13.68-26.08,0-44.69-18.91-44.69-42s17.71-42,42.22-42c29.52,1.94,41.1,26,41.1,46.11ZM838.57,115.08h49.99c-2.47-8.59-11.88-19.5-24.06-19.5-14.12,0-24.51,10.24-25.93,19.5Z"/>
        <path class="cls-2" d="M979.4,93.48v-40.28h14.35v112.01h-14.35v-11.21c-5.38,6.2-16.66,11.73-27.72,11.73-23.16,0-42.07-18.91-42.07-42s18.91-41.92,42.07-41.92c11.88,0,21.9,5.68,27.72,11.66ZM923.96,123.75c0,15.32,12.33,27.5,27.8,27.65,13.97,0,27.65-9.64,27.65-27.28-.15-15.77-12.33-27.95-27.72-27.95s-27.72,12.25-27.72,27.57Z"/>
      </g>
      <g>
        <polygon class="cls-2" points="15.5 22.23 16.72 22.23 16.72 13.89 19.59 13.89 19.59 12.86 12.65 12.86 12.65 13.89 15.5 13.89 15.5 22.23"/>
        <path class="cls-2" d="M21.79,18.22c.08-1.4.15-2.98.18-4.14h.03c.26,1.11.64,2.32,1.08,3.64l1.52,4.46h.92l1.65-4.55c.47-1.29.86-2.46,1.18-3.56h.04c-.01,1.17.07,2.74.14,4.05l.24,4.12h1.18l-.58-9.37h-1.54l-1.67,4.53c-.42,1.18-.75,2.21-.99,3.16h-.04c-.24-.97-.56-2-.95-3.16l-1.6-4.53h-1.54l-.65,9.37h1.15l.25-4.02Z"/>
        <path class="cls-1" d="M30.74,201.53c-5.65,2.87-8.43,8.75-6.2,13.13,2.23,4.38,8.61,5.6,14.26,2.73,5.65-2.87,8.43-8.75,6.2-13.13-2.23-4.38-8.61-5.6-14.26-2.73Z"/>
        <path class="cls-1" d="M164.09,17.3c5.47-3.19,7.91-9.22,5.43-13.46-2.48-4.24-8.92-5.09-14.39-1.9-5.47,3.19-7.91,9.22-5.43,13.46,2.48,4.24,8.92,5.09,14.39,1.9Z"/>
        <path class="cls-2" d="M180.71,25.93c-1.92-4.41-7.05-6.43-11.46-4.5-4.41,1.92-6.43,7.05-4.5,11.46,10.85,24.9,16.12,52.42,14.45,75.51-2.06,28.51-14.04,49.4-35.58,62.1-5,2.92-10.34,4.67-15.71,5.36,8.22-39.27,17.51-87.26-5.07-124.52-16.17-26.43-50.28-34.94-77.72-19.35C18.4,47.44,2.92,73.67.37,107.84c-1.94,25.87,3.83,56.52,15.82,84.09,1.43,3.28,4.63,5.24,7.99,5.24,1.16,0,2.34-.23,3.47-.73,4.41-1.92,6.43-7.05,4.51-11.46-10.9-25.05-16.16-52.7-14.43-75.84,2.14-28.57,14.29-49.46,36.05-62.05,4.95-2.82,10.22-4.5,15.5-5.15-8.28,39.35-18.41,88.15,5.42,125.66,10.83,16.82,29.1,26.02,47.98,26.02,10.08,0,20.34-2.62,29.74-8.11,26.42-15.57,41.68-41.8,44.14-75.87,1.86-25.81-3.92-56.33-15.86-83.72ZM89.38,158.22c-20.12-31.66-10.99-75.01-2.94-113.25.1-.46.19-.9.28-1.35,8.58,2.81,16.19,8.52,21.24,16.77,19.4,32.03,10.16,77.27,2.47,113.91-8.44-2.68-15.96-8.15-21.06-16.08Z"/>
      </g>
    </g>
  </g>
</svg>